<svg width="48" height="48" viewBox="0 0 48 48" fill="none" xmlns="http://www.w3.org/2000/svg">
<g clip-path="url(#clip0_302_467)">
<path fill-rule="evenodd" clip-rule="evenodd" d="M9.18379 25.4196C6.97465 21.5932 8.28565 16.7005 12.112 14.4914L27.7004 5.49138C31.5268 3.28224 36.4195 4.59325 38.6286 8.41959C40.8378 12.2459 39.5268 17.1386 35.7004 19.3478L35.1026 19.693C36.322 20.3728 37.3799 21.381 38.1287 22.6779C40.3378 26.5043 39.0268 31.397 35.2005 33.6061L19.612 42.6061C15.7857 44.8153 10.893 43.5043 8.68382 39.6779C6.47468 35.8516 7.78569 30.9589 11.612 28.7497L12.2099 28.4046C10.9904 27.7247 9.93258 26.7165 9.18379 25.4196Z" fill="#FF0606"/>
<path d="M30 24L21 29.1962L21 18.8038L30 24Z" fill="white"/>
</g>
<defs>
<clipPath id="clip0_302_467">
<rect width="48" height="48" fill="white"/>
</clipPath>
</defs>
</svg>
