<svg width="48" height="48" viewBox="0 0 48 48" fill="none" xmlns="http://www.w3.org/2000/svg">
<path d="M35.1021 25.5001C34.9663 24.7041 34.6895 23.9183 34.2622 23.1781C33.2573 21.4377 31.618 20.292 29.8051 19.8646L32.1999 18.4819C35.548 16.5489 36.6951 12.2678 34.7621 8.91975C32.8291 5.5717 28.548 4.42457 25.1999 6.35757L9.61148 15.3576C6.26344 17.2906 5.11631 21.5717 7.04931 24.9197C8.05412 26.6601 9.69344 27.8058 11.5064 28.2333L9.11152 29.6159C5.76347 31.5489 4.61635 35.8301 6.54934 39.1781C8.48234 42.5261 12.7635 43.6733 16.1115 41.7403L23.9058 37.2403" stroke="white" stroke-width="2" stroke-linecap="round" stroke-linejoin="round"/>
<path d="M27 24L18 29.1962L18 18.8038L27 24Z" fill="white"/>
<rect x="30" y="36" width="14" height="2" fill="white"/>
<rect x="38" y="30" width="14" height="2" transform="rotate(90 38 30)" fill="white"/>
</svg>
