<svg width="179" height="135" viewBox="0 0 179 135" fill="none" xmlns="http://www.w3.org/2000/svg">
<path d="M0 30.3153C0 16.631 10.6072 5.2889 24.2609 4.37357L89.5 0L154.739 4.37357C168.393 5.2889 179 16.631 179 30.3153V104.549C179 118.289 168.309 129.657 154.595 130.5L89.5 134.5L24.4052 130.5C10.691 129.657 0 118.289 0 104.549V30.3153Z" fill="#FF0000"/>
<path d="M82.1698 44.5547C84.5678 41.3005 89.4322 41.3005 91.8302 44.5547L98.7645 53.9647C99.1219 54.4497 99.5503 54.8781 100.035 55.2355L109.445 62.1698C112.699 64.5678 112.699 69.4322 109.445 71.8302L100.035 78.7645C99.5503 79.1219 99.1219 79.5503 98.7645 80.0353L91.8302 89.4453C89.4322 92.6995 84.5678 92.6995 82.1698 89.4453L75.2355 80.0353C74.8781 79.5503 74.4497 79.1219 73.9647 78.7645L64.5547 71.8302C61.3005 69.4322 61.3005 64.5678 64.5547 62.1698L73.9647 55.2355C74.4497 54.8781 74.8781 54.4497 75.2355 53.9647L82.1698 44.5547Z" fill="white"/>
</svg>
