<svg width="637" height="135" viewBox="0 0 637 135" fill="none" xmlns="http://www.w3.org/2000/svg">
<path d="M0 30.3153C0 16.631 10.6072 5.2889 24.2609 4.37357L89.5 0L154.739 4.37357C168.393 5.2889 179 16.631 179 30.3153V104.549C179 118.289 168.309 129.657 154.595 130.5L89.5 134.5L24.4052 130.5C10.691 129.657 0 118.289 0 104.549V30.3153Z" fill="#FF0000"/>
<path d="M82.1698 44.5547C84.5678 41.3005 89.4322 41.3005 91.8302 44.5547L98.7645 53.9647C99.1219 54.4497 99.5503 54.8781 100.035 55.2355L109.445 62.1698C112.699 64.5678 112.699 69.4322 109.445 71.8302L100.035 78.7645C99.5503 79.1219 99.1219 79.5503 98.7645 80.0353L91.8302 89.4453C89.4322 92.6995 84.5678 92.6995 82.1698 89.4453L75.2355 80.0353C74.8781 79.5503 74.4497 79.1219 73.9647 78.7645L64.5547 71.8302C61.3005 69.4322 61.3005 64.5678 64.5547 62.1698L73.9647 55.2355C74.4497 54.8781 74.8781 54.4497 75.2355 53.9647L82.1698 44.5547Z" fill="white"/>
<path d="M285.637 12.1979V126.695H267.002V58.0294L249.893 126.695H234.854L217.635 57.8663V126.695H199V12.1979H221.014L242.482 91.4653L263.733 12.1979H285.637Z" fill="white"/>
<path d="M361.156 35.6845L342.085 78.5168L323.013 128H302.962L316.911 99.3123L292.173 35.6845H312.987L327.046 68.323L340.995 35.6845H361.156Z" fill="white"/>
<path d="M422.928 12.1979V34.5428H402.658V126.695H384.023V34.5428H363.753V12.1979H422.928Z" fill="white"/>
<path d="M492.328 35.6845V126.695H473.692V114.299C471.803 118.323 469.224 121.585 465.955 124.086C462.758 126.478 459.198 127.674 455.275 127.674C450.625 127.674 446.521 126.152 442.961 123.107C439.401 119.954 436.64 115.441 434.678 109.57C432.717 103.698 431.736 96.7933 431.736 88.8556V35.6845H450.262V85.1043C450.262 91.1934 451.316 95.9234 453.423 99.2941C455.529 102.665 458.363 104.35 461.923 104.35C465.555 104.35 468.425 102.665 470.532 99.2941C472.639 95.9234 473.692 91.1934 473.692 85.1043V35.6845H492.328Z" fill="white"/>
<path d="M524.348 48.5695C526.092 44.3289 528.599 40.9037 531.868 38.2941C535.137 35.6845 538.879 34.3797 543.093 34.3797C548.106 34.3797 552.646 36.2825 556.715 40.0882C560.783 43.8939 563.98 49.3306 566.305 56.3984C568.702 63.4661 569.901 71.6756 569.901 81.0267C569.901 90.3779 568.702 98.6417 566.305 105.818C563.98 112.886 560.783 118.377 556.715 122.291C552.646 126.097 548.106 128 543.093 128C538.806 128 535.065 126.75 531.868 124.249C528.671 121.639 526.165 118.214 524.348 113.973V126.695H505.713V6H524.348V48.5695ZM550.939 81.0267C550.939 74.0677 549.631 68.631 547.016 64.7165C544.473 60.6934 541.313 58.6818 537.535 58.6818C533.829 58.6818 530.669 60.6934 528.054 64.7165C525.511 68.7397 524.239 74.2308 524.239 81.1898C524.239 88.1488 525.511 93.64 528.054 97.6631C530.669 101.686 533.829 103.698 537.535 103.698C541.24 103.698 544.4 101.686 547.016 97.6631C549.631 93.5312 550.939 87.9857 550.939 81.0267Z" fill="white"/>
<path d="M637 79.7219C637 82.3315 636.891 85.0499 636.673 87.877H594.499C594.789 93.5312 595.988 97.8806 598.095 100.925C600.274 103.861 602.926 105.329 606.05 105.329C610.7 105.329 613.933 102.393 615.749 96.5214H635.583C634.566 102.502 632.714 107.884 630.025 112.668C627.41 117.453 624.104 121.204 620.108 123.922C616.113 126.641 611.644 128 606.704 128C600.747 128 595.443 126.097 590.793 122.291C586.144 118.486 582.511 113.049 579.896 105.981C577.28 98.9136 575.972 90.6497 575.972 81.1898C575.972 71.7299 577.244 63.4661 579.787 56.3984C582.402 49.3306 586.035 43.8939 590.684 40.0882C595.334 36.2825 600.674 34.3797 606.704 34.3797C612.589 34.3797 617.82 36.2281 622.397 39.9251C626.974 43.6221 630.534 48.8957 633.077 55.746C635.692 62.5962 637 70.5882 637 79.7219ZM617.929 72.3823C617.929 67.598 616.839 63.7923 614.66 60.9652C612.48 58.1381 609.756 56.7246 606.486 56.7246C603.362 56.7246 600.71 58.0838 598.531 60.8021C596.424 63.5205 595.116 67.3805 594.608 72.3823H617.929Z" fill="white"/>
</svg>
